<svg width="75" height="63" viewBox="0 0 75 63" fill="none" xmlns="http://www.w3.org/2000/svg">
<g clip-path="url(#clip0_185_148)">
<path fill-rule="evenodd" clip-rule="evenodd" d="M22.2457 32.4505C22.5864 33.1565 22.9392 33.692 23.2759 34.0471C23.6318 34.3929 24.0445 34.7584 24.5521 35.125C24.7215 35.2315 24.8335 35.3656 24.898 35.4992C24.9901 35.6901 24.9672 35.9362 24.8103 36.2473L23.99 37.6312C23.8727 37.8289 23.7281 37.9694 23.5748 38.0433C23.3832 38.1358 23.1457 38.1329 22.8711 38.0536C22.4648 37.8968 22.0876 37.7024 21.7486 37.4895C21.4004 37.2576 21.034 36.9875 20.6113 36.6504C19.9641 39.1272 18.5102 40.9108 16.2495 42.0018C14.6403 42.7784 13.1356 42.9399 11.7549 42.4771C10.3741 42.0141 9.30577 41.0241 8.56909 39.4976C7.78631 37.8756 7.72574 36.2817 8.41561 34.7254C9.10548 33.1692 10.4179 31.9242 12.3911 30.972C13.0424 30.6577 13.7407 30.3911 14.4957 30.1446C15.2506 29.8978 16.0523 29.6991 16.9014 29.5011L16.2292 28.1082C15.5293 26.6579 14.7348 25.7947 13.8553 25.4898C12.9567 25.1941 11.7841 25.4071 10.3088 26.119C9.63832 26.4426 8.98542 26.8517 8.35944 27.3656C7.73347 27.8795 7.14503 28.4221 6.60343 29.0128C6.36132 29.2943 6.16828 29.4815 6.05262 29.5844C5.93695 29.6874 5.85035 29.7525 5.77362 29.7895C5.50542 29.919 5.2792 29.7928 5.08583 29.3921L4.63464 28.4572C4.48729 28.1518 4.41518 27.9044 4.44646 27.7246C4.47774 27.5449 4.58575 27.3281 4.7895 27.0651C5.29421 26.398 5.96086 25.7233 6.7891 25.0414C7.6083 24.3403 8.54915 23.7451 9.60295 23.2366C11.8829 22.1363 13.7982 21.8471 15.3683 22.3598C16.9194 22.8817 18.2109 24.1874 19.2238 26.2863L22.2074 32.4687L22.2458 32.4502L22.2457 32.4505ZM15.867 39.1046C16.4993 38.7995 17.0954 38.3707 17.6746 37.8089C18.2538 37.2472 18.6644 36.5315 18.9053 35.7094C19.037 35.199 19.0733 34.6872 18.9675 34.1738C18.8614 33.6604 18.6709 33.0701 18.3578 32.4214L17.9711 31.62C17.351 31.7546 16.7019 31.9268 16.052 32.1461C15.4021 32.3658 14.7899 32.6141 14.1959 32.9008C12.9123 33.5203 12.0932 34.2213 11.7096 35.0418C11.3259 35.8621 11.3694 36.7351 11.8299 37.6891C12.2627 38.586 12.8148 39.1429 13.5148 39.3695C14.2049 39.6247 14.9859 39.53 15.8672 39.1047L15.867 39.1046ZM32.2457 33.741C31.9007 33.9075 31.6433 33.9613 31.4255 33.9015C31.217 33.861 30.954 33.6586 30.664 33.3514L19.0436 20.7744C18.7445 20.4482 18.5673 20.228 18.5028 20.0944C18.3555 19.7891 18.4259 19.5434 18.7324 19.3954L20.61 18.4893C20.974 18.3136 21.2508 18.2507 21.4494 18.3195C21.6579 18.36 21.9017 18.5717 22.1917 18.8789L31.5063 29.9574L28.3991 15.8832C28.3106 15.4554 28.3058 15.1518 28.4038 14.9634C28.5019 14.7749 28.7332 14.5691 29.0781 14.4026L30.6108 13.663C30.9747 13.4873 31.2516 13.4244 31.4693 13.484C31.6779 13.5244 31.9409 13.7269 32.1924 14.0526L41.3891 25.3762L38.5339 10.9922C38.4647 10.5551 38.479 10.2422 38.5579 10.0631C38.6559 9.87463 38.8681 9.67804 39.213 9.51157L40.9947 8.65174C41.3013 8.50379 41.5474 8.57323 41.704 8.89767C41.75 8.99302 41.7769 9.0978 41.813 9.22152C41.849 9.34523 41.8843 9.51641 41.9091 9.76334L44.4101 26.7414C44.4794 27.1784 44.465 27.4912 44.367 27.6798C44.269 27.8682 44.0568 28.0648 43.7311 28.222L42.0835 29.0171C41.7194 29.1929 41.4427 29.2557 41.2249 29.1961C41.0072 29.1365 40.7534 28.9532 40.4926 28.6084L31.5835 17.734L34.5634 31.4463C34.6518 31.8741 34.6564 32.1776 34.5676 32.3852C34.4787 32.5927 34.2382 32.7795 33.8934 32.9458L32.2459 33.741L32.2457 33.741ZM57.1129 22.3754C56.1166 22.8562 55.0651 23.2225 53.9967 23.4559C52.9284 23.6892 52.0614 23.8017 51.4252 23.7558C51.0357 23.732 50.733 23.6429 50.5734 23.5082C50.4139 23.3733 50.2836 23.2011 50.2007 23.0294L49.731 22.0562C49.5377 21.6555 49.5988 21.3907 49.8862 21.252C50.0011 21.1965 50.1253 21.1602 50.2586 21.1429C50.392 21.1257 50.6012 21.1187 50.8298 21.1026C51.6192 21.0745 52.4386 20.9614 53.2595 20.7534C54.0996 20.5362 54.8835 20.2519 55.6499 19.8821C56.8568 19.2996 57.6943 18.6365 58.1431 17.9024C58.5918 17.1683 58.642 16.3912 58.2645 15.6089C58.0067 15.0746 57.6224 14.719 57.1027 14.5229C56.5828 14.3267 55.775 14.3167 54.6889 14.4644L51.4966 14.9464C49.8862 15.1824 48.5385 15.033 47.492 14.4794C46.4546 13.9449 45.6777 13.1671 45.1988 12.1749C44.8121 11.3735 44.6438 10.5843 44.6939 9.80722C44.744 9.03018 44.946 8.274 45.3182 7.57683C45.6811 6.86055 46.176 6.22196 46.8318 5.623C47.4877 5.02405 48.2463 4.54039 49.0893 4.13358C49.5107 3.93017 49.9606 3.73661 50.4097 3.59035C50.878 3.435 51.3171 3.31709 51.7562 3.19919C52.1854 3.10965 52.5956 3.02945 52.9956 2.97753C53.3956 2.92561 53.7192 2.91055 53.966 2.93277C54.3079 2.95601 54.5732 3.01619 54.7709 3.13233C54.9595 3.22953 55.1184 3.41174 55.2473 3.67887L55.6801 4.57577C55.8735 4.97645 55.8216 5.26041 55.5342 5.3991C55.3809 5.47307 55.095 5.51683 54.6956 5.52137C53.3642 5.55232 52.0181 5.89592 50.6579 6.55235C49.5659 7.07934 48.7867 7.66718 48.3677 8.3163C47.9486 8.96541 47.9091 9.66672 48.2867 10.4492C48.5445 10.9834 48.9572 11.3489 49.5153 11.5265C50.0733 11.7041 50.9572 11.7246 52.1291 11.5589L55.2641 11.1046C56.8553 10.8778 58.1463 11.0077 59.1177 11.5033C60.0892 11.999 60.8094 12.7572 61.2883 13.7494C61.6843 14.5699 61.8709 15.3974 61.8584 16.2032C61.8266 17.0185 61.6431 17.8126 61.2702 18.5573C60.9064 19.3209 60.3634 20.0065 59.6593 20.6521C58.926 21.3353 58.0901 21.9033 57.1129 22.375L57.1129 22.3754Z" fill="white"/>
<path fill-rule="evenodd" clip-rule="evenodd" d="M65.2112 29.9014C61.1458 37.5801 53.1759 44.461 45.3019 48.261C34.2665 53.5866 22.362 54.3207 11.592 51.1904C10.7402 50.9428 10.9268 49.9587 11.8383 50.0364C22.2267 50.8102 33.6188 48.8178 43.9834 43.8159C50.9762 40.4412 57.9588 35.2834 63.5918 28.8949C64.4152 27.9094 65.8775 28.6388 65.2112 29.9014Z" fill="#FF9900"/>
<path fill-rule="evenodd" clip-rule="evenodd" d="M66.3995 25.6581C65.0975 25.016 60.8339 27.7322 58.9038 28.9697C58.3275 29.3418 57.9739 28.8538 58.3361 28.185C60.7223 23.9281 66.9923 21.7962 68.0872 22.303C69.1912 22.8288 71.1554 29.1503 69.1465 33.6014C68.841 34.2899 68.2323 34.3014 68.1861 33.618C68.0408 31.359 67.6923 26.2811 66.3996 25.658L66.3995 25.6581Z" fill="#FF9900"/>
</g>
<defs>
<clipPath id="clip0_185_148">
<rect width="63.9611" height="38.0945" fill="white" transform="translate(0 27.8247) rotate(-25.7617)"/>
</clipPath>
</defs>
</svg>
