<svg width="80" height="71" viewBox="0 0 80 71" fill="none" xmlns="http://www.w3.org/2000/svg">
<g clip-path="url(#clip0_185_225)">
<path d="M65.471 16.1269C65.2438 16.0741 63.2319 15.689 60.1047 17.2489C59.2957 17.6524 58.4986 18.1509 57.7583 18.6922C55.0999 14.8434 50.6743 14.5465 50.485 14.5104L49.4034 14.4386L49.2552 15.4918C49.1096 16.8818 49.1889 18.3319 49.5024 19.6947C50.1103 22.335 51.5674 24.3796 53.7007 25.6833C52.6772 27.2087 50.4538 28.5551 49.9807 28.8267L11.692 47.9252C10.6937 48.4232 10.2901 49.6393 10.7902 50.642C12.414 54.0277 14.6505 57.1019 17.3907 59.6934C20.4387 62.4993 23.6916 64.0933 27.0097 64.3966C30.7443 64.7295 35.9093 63.4053 41.1655 60.7835C43.5358 59.6012 45.8018 58.1979 47.9327 56.595C50.9008 54.3727 53.4592 51.6723 55.5179 48.5861C57.2031 46.0186 58.4551 43.1983 59.236 40.2392C60.5667 35.2789 60.4563 30.5329 60.0743 26.4625C60.2636 26.3681 60.4244 26.2878 60.6137 26.1934C63.9302 24.5392 65.3174 22.1915 65.8792 20.4869C66.2854 19.406 66.4146 18.2556 66.3356 17.0784L66.226 16.2548L65.471 16.1269ZM43.2047 30.8179L48.3285 28.2622C48.5697 28.1418 48.6926 27.8432 48.5574 27.5723L46.2605 22.9675C46.1397 22.7251 45.8414 22.6009 45.5717 22.7354L40.4479 25.2912C40.2066 25.4115 40.0838 25.7102 40.2189 25.981L42.5158 30.5859C42.6793 30.8426 42.9634 30.9383 43.2047 30.8179ZM29.4829 21.1942L34.6067 18.6384C34.848 18.5181 34.9708 18.2194 34.8357 17.9485L32.5388 13.3437C32.4179 13.1014 32.0912 12.9913 31.8499 13.1117L26.7262 15.6674C26.4849 15.7878 26.3621 16.0864 26.4972 16.3573L28.7941 20.9621C28.915 21.2045 29.2369 21.3169 29.4829 21.1942ZM32.7778 27.7996L37.9015 25.2439C38.1428 25.1235 38.2514 24.7964 38.1305 24.554L35.8336 19.9492C35.7127 19.7068 35.3861 19.5968 35.1448 19.7171L30.021 22.2729C29.7797 22.3933 29.6569 22.6919 29.792 22.9628L32.0889 27.5676C32.2122 27.8147 32.5317 27.9223 32.7778 27.7996ZM25.6858 31.3371L30.8096 28.7813C31.0509 28.661 31.1595 28.3338 31.0386 28.0915L28.7417 23.4867C28.6208 23.2443 28.3225 23.1201 28.0529 23.2546L22.9291 25.8104C22.6878 25.9307 22.565 26.2294 22.7001 26.5002L24.997 31.1051C25.1203 31.3522 25.4162 31.4716 25.6858 31.3371ZM18.4851 34.9289L23.6089 32.3731C23.8502 32.2527 23.9588 31.9256 23.8379 31.6832L21.541 27.0784C21.4201 26.8361 21.1218 26.7118 20.8521 26.8464L15.7284 29.4021C15.4871 29.5225 15.3643 29.8211 15.4994 30.092L17.7963 34.6968C17.9479 34.9298 18.2438 35.0492 18.4851 34.9289ZM36.0607 34.3813L41.1845 31.8256C41.4258 31.7052 41.5486 31.4066 41.4135 31.1357L39.1166 26.5309C38.9957 26.2885 38.6974 26.1643 38.4278 26.2989L33.304 28.8546C33.0627 28.975 32.9399 29.2736 33.075 29.5445L35.3719 34.1493C35.507 34.4202 35.8147 34.5041 36.0607 34.3813ZM28.9688 37.9188L34.0926 35.3631C34.3339 35.2427 34.4567 34.9441 34.3216 34.6732L32.0247 30.0684C31.9038 29.826 31.6055 29.7018 31.3358 29.8363L26.2121 32.3921C25.9708 32.5124 25.848 32.8111 25.9831 33.0819L28.28 37.6868C28.4151 37.9576 28.6992 38.0533 28.9688 37.9188ZM21.7681 41.5106L26.8919 38.9548C27.1332 38.8345 27.256 38.5358 27.1209 38.2649L24.824 33.6601C24.7031 33.4178 24.4048 33.2936 24.1351 33.4281L19.0113 35.9838C18.7701 36.1042 18.6472 36.4028 18.7824 36.6737L21.0793 41.2785C21.2428 41.5352 21.5268 41.6309 21.7681 41.5106ZM14.7046 45.0339L19.8284 42.4781C20.0696 42.3578 20.1925 42.0591 20.0573 41.7883L17.7604 37.1834C17.6396 36.9411 17.3413 36.8169 17.0716 36.9514L11.9478 39.5071C11.7065 39.6275 11.5837 39.9261 11.7188 40.197L14.0157 44.8018C14.1792 45.0585 14.4633 45.1542 14.7046 45.0339Z" fill="url(#paint0_linear_185_225)"/>
</g>
<defs>
<linearGradient id="paint0_linear_185_225" x1="29.0569" y1="14.5048" x2="49.9542" y2="56.3997" gradientUnits="userSpaceOnUse">
<stop stop-color="#14ABFF"/>
<stop offset="1" stop-color="#005AE2"/>
</linearGradient>
<clipPath id="clip0_185_225">
<rect width="64.9666" height="46.8228" fill="white" transform="translate(0 28.9985) rotate(-26.5102)"/>
</clipPath>
</defs>
</svg>
