<svg width="48" height="34" viewBox="0 0 48 34" fill="none" xmlns="http://www.w3.org/2000/svg">
<g clip-path="url(#clip0_185_223)">
<path d="M41.8102 32.9967C40.2057 33.0236 39.3532 32.4406 38.8037 30.9964L34.7316 21.4215L34.1314 20.0872L24.9656 27.7939C23.9052 28.731 22.954 29.0241 21.5572 28.2788L33.2728 18.5014L27.4477 5.83841C28.9441 5.89766 29.9011 6.26863 30.4838 7.74147L34.7546 17.4702L42.9272 10.6945C43.9901 9.75796 44.9507 9.5322 46.2915 10.2816L42.0747 13.7584L36.3855 18.3662C35.7143 18.8878 35.6831 19.3449 36.0174 20.0778L41.8102 32.9967ZM2.97015 11.2168L4.53212 7.83108C8.16767 1.25783 17.0144 0.239288 21.629 5.90286C24.322 9.22898 24.2949 13.0383 23.1857 17.0534L4.63947 12.7229C2.65755 19.9536 6.94304 25.5973 14.2417 24.9327C16.802 24.6988 18.631 23.1867 19.8687 21.0499C20.4935 19.9802 21.1237 19.9371 22.1433 20.5227C20.9119 23.2692 19.0876 25.3777 16.0671 26.2587C11.5534 27.579 6.03045 25.5216 3.76682 21.6933C2.4068 19.4609 2.20707 16.9886 2.45092 14.4511C2.49369 14.0322 2.48005 13.6206 2.49293 13.2127C2.65526 12.5485 2.8144 11.8839 2.96986 11.2181L2.97015 11.2168ZM5.03454 11.1834L21.7943 15.0967C22.9167 9.79573 20.4677 5.2725 15.9321 4.17994C10.9544 2.97697 6.51952 5.79873 5.03422 11.1833L5.03454 11.1834Z" fill="white"/>
</g>
<defs>
<clipPath id="clip0_185_223">
<rect width="42.7858" height="24.5305" fill="white" transform="translate(5.57812) rotate(13.1428)"/>
</clipPath>
</defs>
</svg>
