<svg width="66" height="66" viewBox="0 0 66 66" fill="none" xmlns="http://www.w3.org/2000/svg">
<g clip-path="url(#clip0_185_154)">
<path d="M9.14511 39.5401L10.7246 41.0996L40.8154 10.6228L39.2359 9.06333L9.14511 39.5401Z" fill="#FFFDFE"/>
<path d="M50.9069 47.3822L9.4668 36.5615L8.906 38.7092L50.3461 49.5299L50.9069 47.3822Z" fill="#FFFDFE"/>
<path d="M9.97133 37.9824L27.5742 55.3623L29.1337 53.7828L11.5308 36.4029L9.97133 37.9824Z" fill="#FFFDFE"/>
<path d="M36.1217 11.4936L53.7246 28.8735L55.2841 27.294L37.6812 9.9141L36.1217 11.4936Z" fill="#FFFDFE"/>
<path d="M15.4743 16.8929L16.0625 19.0332L39.9152 12.478L39.327 10.3377L15.4743 16.8929Z" fill="#FFFDFE"/>
<path d="M36.2522 9.43348L47.6016 50.731L49.7419 50.1428L38.3925 8.84529L36.2522 9.43348Z" fill="#FFFDFE"/>
<path d="M18.8215 16.2429L16.6738 15.6821L10.424 39.6173L12.5717 40.1781L18.8215 16.2429Z" fill="#FFFDFE"/>
<path d="M54.8411 25.6477L52.6934 25.0869L46.4435 49.022L48.5912 49.5828L54.8411 25.6477Z" fill="#FFFDFE"/>
<path d="M26.9335 52.4908L27.4473 54.3604L48.1927 48.6591L47.6789 46.7896L26.9335 52.4908Z" fill="#FFFDFE"/>
<path d="M51.2552 51.0249C49.449 52.8612 46.4877 52.8757 44.6514 51.0695C42.8151 49.2633 42.8006 46.302 44.6068 44.4657C46.413 42.6294 49.3743 42.6149 51.2106 44.4211C53.0565 46.2436 53.0744 49.192 51.2552 51.0249Z" fill="#FFFDFE"/>
<path d="M20.6458 20.7959C18.8396 22.6322 15.8784 22.6467 14.042 20.8405C12.2057 19.0343 12.1912 16.073 13.9974 14.2367C15.8037 12.4004 18.7649 12.3859 20.6012 14.1921C22.4342 16.0113 22.4521 18.9596 20.6458 20.7959Z" fill="#FFFDFE"/>
<path d="M7.39458 39.5724C6.71672 37.0874 8.17376 34.5242 10.6621 33.8334C13.147 33.1555 15.7102 34.6126 16.401 37.1009C17.0789 39.5858 15.6219 42.1491 13.1335 42.8399C10.6357 43.5143 8.07245 42.0573 7.39458 39.5724Z" fill="#FFFDFE"/>
<path d="M48.877 28.1676C48.1991 25.6826 49.6562 23.1194 52.1445 22.4286C54.6295 21.7507 57.1927 23.2078 57.8835 25.6961C58.5613 28.1811 57.1043 30.7443 54.616 31.4351C52.131 32.1129 49.5549 30.6525 48.877 28.1676Z" fill="#FFFDFE"/>
<path d="M26.0186 57.9651C23.5216 57.313 22.0303 54.7677 22.6823 52.2707C23.3343 49.7737 25.8796 48.2824 28.3767 48.9344C30.8737 49.5864 32.365 52.1317 31.713 54.6287C31.0643 57.1128 28.5156 58.6171 26.0186 57.9651Z" fill="#FFFDFE"/>
<path d="M36.8897 16.3308C34.3927 15.6788 32.9014 13.1334 33.5534 10.6364C34.2054 8.13941 36.7507 6.64811 39.2477 7.30012C41.7448 7.95213 43.2361 10.4975 42.5841 12.9945C41.932 15.4915 39.3867 16.9828 36.8897 16.3308Z" fill="#FFFDFE"/>
</g>
<defs>
<clipPath id="clip0_185_154">
<rect width="53.4868" height="53.4868" fill="white" transform="translate(13.5137) rotate(14.6341)"/>
</clipPath>
</defs>
</svg>
