<svg width="74" height="75" viewBox="0 0 74 75" fill="none" xmlns="http://www.w3.org/2000/svg">
<g clip-path="url(#clip0_185_212)">
<path d="M51.9539 46.4077C51.8734 46.4057 50.178 44.8571 47.8987 43.1552C45.9639 41.7229 43.9402 40.4147 41.8397 39.2387C40.2757 38.3791 38.796 36.3492 37.9833 37.0911C34.9395 39.8701 31.1579 41.5605 27.286 42.2781C24.4454 42.8212 21.5228 42.7671 18.7042 42.1193C16.9208 39.0225 17.6311 35.1576 20.4967 33.2188C22.7706 31.6802 25.3299 30.0233 23.7375 28.2355C22.5781 26.935 20.9315 27.7843 19.4537 28.8806C16.6252 30.9751 12.7988 32.5639 10.0424 35.5938C7.13356 38.7916 5.2693 42.978 6.97867 47.1261C10.9606 56.7902 24.0264 53.755 33.6018 57.0542C37.0695 58.2479 40.279 60.4921 43.9026 60.6693C45.2054 60.7423 46.5083 60.5276 47.7189 60.0405C48.9294 59.5534 50.0178 58.8058 50.907 57.8508C53.7209 54.8021 54.1381 50.2405 51.9539 46.4077Z" fill="#C21325" stroke="white" stroke-width="4.02232"/>
<path d="M37.9857 37.0888C34.9418 39.8678 31.1602 41.5582 27.2883 42.2758C24.4474 42.82 21.5243 42.7667 18.7051 42.1191C16.9218 39.0224 17.6331 35.1581 20.4987 33.2193C22.7726 31.6807 25.3319 30.0239 23.7395 28.2361C22.5802 26.9355 20.9324 27.7842 19.4557 28.8812C16.6261 30.975 12.799 32.5648 10.0434 35.5936C7.13452 38.7914 5.27026 42.9778 6.97963 47.1259C10.9616 56.79 24.0274 53.7548 33.6028 57.054C37.0704 58.2477 40.28 60.4919 43.9036 60.6691C45.2064 60.7422 46.5093 60.5275 47.7198 60.0404C48.9303 59.5533 50.0188 58.8057 50.9079 57.8507C53.7216 54.8048 54.1401 50.241 51.9524 46.4136" stroke="white" stroke-width="4.02232"/>
<path d="M53.2378 28.0197L51.3897 43.6021L71.5929 27.595L46.0723 11.0986L39.7789 36.0455L53.2378 28.0197Z" fill="#C21325"/>
<path d="M53.2378 28.0197L51.3897 43.6021L71.5929 27.595L46.0723 11.0986L39.7789 36.0455L53.2378 28.0197Z" stroke="white" stroke-width="4.02232"/>
<path d="M34.7177 41.2354C37.1328 42.7965 40.3561 42.1042 41.9172 39.6891C43.4783 37.274 42.786 34.0507 40.3709 32.4897C37.9558 30.9286 34.7325 31.6209 33.1715 34.0359C31.6104 36.451 32.3027 39.6743 34.7177 41.2354Z" fill="#C21325"/>
<path d="M34.7177 41.2354C37.1328 42.7965 40.3561 42.1042 41.9172 39.6891C43.4783 37.274 42.786 34.0507 40.3709 32.4897C37.9558 30.9286 34.7325 31.6209 33.1715 34.0359C31.6104 36.451 32.3027 39.6743 34.7177 41.2354Z" stroke="white" stroke-width="4.02232"/>
<path d="M48.9599 50.4424C51.375 52.0035 54.5983 51.3112 56.1594 48.8961C57.7204 46.4811 57.0282 43.2578 54.6131 41.6967C52.198 40.1356 48.9747 40.8279 47.4137 43.243C45.8526 45.658 46.5449 48.8813 48.9599 50.4424Z" fill="#C21325" stroke="white" stroke-width="4.02232"/>
<path d="M48.9599 50.4424C51.375 52.0035 54.5983 51.3112 56.1594 48.8961C57.7204 46.4811 57.0282 43.2578 54.6131 41.6967C52.198 40.1356 48.9747 40.8279 47.4137 43.243C45.8526 45.658 46.5449 48.8813 48.9599 50.4424Z" stroke="white" stroke-width="4.02232"/>
<path d="M20.3997 32.025C22.8142 33.5857 26.0367 32.8936 27.5974 30.4791C29.1581 28.0647 28.4659 24.8422 26.0515 23.2815C23.637 21.7208 20.4145 22.4129 18.8538 24.8274C17.2931 27.2418 17.9852 30.4643 20.3997 32.025Z" fill="#C21325"/>
<path d="M20.3997 32.025C22.8142 33.5857 26.0367 32.8936 27.5974 30.4791C29.1581 28.0647 28.4659 24.8422 26.0515 23.2815C23.637 21.7208 20.4145 22.4129 18.8538 24.8274C17.2931 27.2418 17.9852 30.4643 20.3997 32.025Z" stroke="white" stroke-width="4.02232"/>
</g>
<defs>
<clipPath id="clip0_185_212">
<rect width="50.6382" height="55.9328" fill="white" transform="translate(31.2441) rotate(32.8783)"/>
</clipPath>
</defs>
</svg>
