<svg width="58" height="65" viewBox="0 0 58 65" fill="none" xmlns="http://www.w3.org/2000/svg">
<g clip-path="url(#clip0_185_207)">
<path d="M46.5563 8.0636L46.061 11.4671C46.0221 12.1336 46.0457 12.7665 46.1454 13.4129C46.4342 15.3042 46.6303 17.2068 46.6616 19.1136C46.7384 23.6321 45.8625 27.9445 44.3682 32.2066C43.4438 34.8019 42.1875 37.2381 40.5937 39.4638C35.8572 46.1395 29.4401 50.1464 21.4303 51.5112C20.1399 51.7099 18.8378 51.8156 17.5339 51.8026C17.0828 51.4715 17.1235 50.9681 17.1716 50.513C17.2551 49.6746 17.5325 48.8518 17.9133 48.1099C18.3392 47.1937 18.8199 46.3189 19.4768 45.5328L19.75 45.1606C19.7718 45.0543 46.2603 8.1355 46.5564 8.06423L46.5561 8.0646L46.5563 8.0636Z" fill="#599636"/>
<path d="M46.6155 7.98199C46.6403 7.83619 46.5281 7.87784 46.4362 7.89038C46.0701 8.44352 45.5343 8.78302 44.9095 9.02447C44.2579 9.24115 43.5796 9.27705 42.8809 9.3369C39.0153 9.65087 35.3396 10.7598 31.8193 12.4333C27.1044 14.7027 23.1537 17.9434 19.7801 21.9325C18.5353 23.3507 15.2211 29.1471 14.5656 31.0402C12.8606 36.0917 12.6792 41.2403 13.5211 46.4422C13.7384 47.7054 14.0458 48.9547 14.3995 50.1985C14.6387 50.3741 14.8215 50.1797 14.9927 50.0607C15.3465 49.7973 15.6822 49.5094 15.994 49.1982L19.4556 45.6007L46.6151 7.98173L46.6155 7.98199Z" fill="#6CAC48"/>
<path d="M15.6406 52.9067C16.1423 52.3353 16.8068 52.0435 17.4963 51.7723C17.2735 51.4047 17.2296 50.966 17.2599 50.5351C17.2946 50.1519 17.3964 49.7356 17.508 49.3666C17.956 47.9763 18.7374 46.7461 19.4685 45.5262L19.9759 44.835C19.7652 44.8444 19.074 45.7277 18.9753 45.8621C18.0178 47.0109 16.9668 48.0968 15.8604 49.1025C15.4293 49.5233 15.0256 49.962 14.4186 50.1715C14.3794 50.225 14.3404 50.2781 14.3077 50.377C13.751 52.1386 12.8283 53.6709 11.8343 55.1937L11.4423 55.7278C10.9742 56.3655 11.0469 56.212 11.4189 56.8143C11.5738 57.0503 11.7917 57.252 11.8883 57.5675C12.0485 57.6852 12.1718 57.5716 12.2504 57.4647L12.8152 56.5287L14.6122 54.0807C14.9 53.6342 15.2908 53.2683 15.6372 52.9076L15.6406 52.9067Z" fill="#C2BFBF"/>
</g>
<defs>
<clipPath id="clip0_185_207">
<rect width="27.1791" height="60.5868" fill="white" transform="translate(35.8516) rotate(36.2808)"/>
</clipPath>
</defs>
</svg>
