<svg width="68" height="68" viewBox="0 0 68 68" fill="none" xmlns="http://www.w3.org/2000/svg">
<g clip-path="url(#clip0_185_142)">
<path d="M22.5369 10.0184C22.4369 10.0682 22.1198 10.2297 21.832 10.3689C15.2233 13.6538 10.247 19.8475 8.39555 27.1093C7.36276 31.1482 7.31067 35.2938 8.24151 39.3008C8.56404 40.7004 8.69282 41.1008 9.39217 42.8965C10.0915 44.6922 10.2674 45.0742 10.9765 46.3233C15.8131 54.8668 25.2194 59.9641 35.0565 59.3789C36.8178 59.2737 38.6017 58.9752 40.5585 58.4519C41.3204 58.2475 44.4786 57.0174 45.178 56.6528C48.2769 55.0333 50.7083 53.1637 52.8761 50.729C53.2084 50.3553 53.2665 50.2675 53.1915 50.2424C53.1428 50.2288 50.4519 48.5466 47.2146 46.5072L41.3304 42.8009L33.7143 37.5329C29.5248 34.6376 26.0858 32.2751 26.0669 32.2825C26.0462 32.2851 27.2645 35.4691 28.7658 39.3516C31.3967 46.1487 31.4985 46.4239 31.476 46.6172C31.4434 46.8958 31.3858 47.0268 31.2282 47.2076C31.1068 47.3418 30.9803 47.4073 30.2685 47.6845L29.453 48.0021L29.183 47.9499C29.0067 47.9154 28.8571 47.838 28.7331 47.7288L28.5515 47.5553L24.8806 38.1019L21.2126 28.6419L21.2872 28.4012C21.324 28.2728 21.4348 28.0832 21.524 27.9778C21.6806 27.8083 21.7523 27.7695 22.5678 27.4519C23.5294 27.0774 23.7044 27.0527 24.0607 27.2287C24.1607 27.2766 28.3114 30.1979 33.2898 33.7249C38.2682 37.252 45.0722 42.0656 48.4136 44.4281L54.484 48.7241L54.6277 48.5215C55.9056 46.7428 57.0989 44.4543 57.8895 42.2466C59.5755 37.557 59.8781 32.5214 58.7648 27.7115C58.4423 26.3119 58.3135 25.9115 57.6142 24.1158C56.9148 22.3201 56.7389 21.9381 56.0298 20.689C51.1933 12.1455 41.7869 7.04819 31.9499 7.63342C30.2139 7.73415 28.4395 8.02897 26.5204 8.53757C26.0495 8.66668 22.9135 9.82833 22.5369 10.0184ZM38.0869 20.7565C38.3572 20.7814 38.6254 20.9267 38.7795 21.1272C38.865 21.235 39.895 23.8518 42.1855 29.761L45.4718 38.2407L43.0854 36.5321L40.6943 34.8253L38.2952 28.6653C36.7442 24.6827 35.8911 22.4367 35.8772 22.3172C35.8498 22.0239 35.934 21.7523 36.1126 21.5416C36.2673 21.3674 36.3343 21.3304 37.0744 21.0422C37.772 20.7705 37.8983 20.7322 38.0869 20.7565Z" fill="white"/>
</g>
<defs>
<clipPath id="clip0_185_142">
<rect width="51.7501" height="51.7501" fill="white" transform="translate(0 18.7808) rotate(-21.2791)"/>
</clipPath>
</defs>
</svg>
