<svg width="55" height="59" viewBox="0 0 55 59" fill="none" xmlns="http://www.w3.org/2000/svg">
<g clip-path="url(#clip0_185_228)">
<path fill-rule="evenodd" clip-rule="evenodd" d="M31.2887 40.9826C23.342 39.3333 22.4334 35.3382 23.0693 32.2741C23.1296 31.9835 23.4122 31.7979 23.7026 31.8582L26.0503 32.3454C26.3085 32.399 26.487 32.6339 26.4745 32.8966C26.3327 35.3642 27.135 36.7898 31.9434 37.7877C35.7715 38.5821 37.5764 38.0556 37.9987 36.021C38.2416 34.8503 37.9579 33.886 32.1326 32.0707C27.2611 30.546 24.4143 28.8141 25.2413 24.8296C26.002 21.164 29.5452 19.6213 34.7246 20.6962C40.5415 21.9034 43.0027 24.5196 42.4643 28.9387C42.4454 29.0906 42.3628 29.2251 42.2393 29.3131C42.1167 29.3972 41.9621 29.4325 41.8169 29.4023L39.4611 28.9134C39.2151 28.8624 39.0373 28.6444 39.0375 28.4002C38.9907 25.7671 37.7867 24.6751 34.0514 23.8999C29.8723 23.0326 29.0858 24.3895 28.8596 25.4795C28.5848 26.8036 29.0771 27.31 34.5615 29.2272C39.9902 31.1286 42.4234 32.7242 41.6082 36.6522C40.7863 40.6124 37.0158 42.1964 31.2595 41.0018L31.2887 40.9826ZM22.6783 54.2704C22.0127 54.1322 21.3912 53.8222 20.8799 53.3666L15.5626 48.5154C14.7606 47.8184 15.2412 47.7329 15.5615 47.6898C16.8556 47.5163 17.1209 47.4745 18.5642 47.0077C18.7173 46.9594 18.8889 47.0245 19.0093 47.1337L23.0945 50.866C23.2446 50.994 23.4826 51.0434 23.6592 50.9832L44.0011 44.2609C44.1907 44.1991 44.3398 44.028 44.3817 43.8261L48.7341 22.8542C48.7777 22.6442 48.7073 22.4359 48.5556 22.295L32.571 8.04209C32.4225 7.90601 32.2006 7.85997 32.0103 7.92573L11.6821 14.6425C11.4837 14.7065 11.3346 14.8777 11.2927 15.0796L6.93945 36.0556C6.89756 36.2574 6.9671 36.4698 7.12045 36.6026L11.4977 40.5092C13.9157 42.4216 15.9005 41.1703 16.2322 39.5716L20.5293 18.8661C20.5905 18.5714 20.8682 18.389 21.1667 18.451L23.466 18.9281C23.7524 18.9876 23.9435 19.263 23.8815 19.5618L19.5827 40.2754C18.8345 43.8804 16.4411 45.5396 13.0285 44.8314C11.9796 44.6137 11.1487 44.4412 9.07757 42.824L4.87607 39.0844C3.83977 38.1577 3.37759 36.7354 3.65993 35.375L8.01317 14.399C8.29635 13.0345 9.28719 11.9095 10.605 11.4798L30.9639 4.75677C32.2484 4.34542 33.7772 4.6627 34.7839 5.54957L50.7652 19.8186C51.7983 20.7404 52.2654 22.1595 51.9813 23.5281L47.6281 44.5041C47.3458 45.8645 46.3526 46.9806 45.0363 47.4233L24.6976 54.1504C24.0472 54.365 23.3496 54.4013 22.68 54.2623L22.6783 54.2704Z" fill="#4FAD46"/>
</g>
<defs>
<clipPath id="clip0_185_228">
<rect width="44.9059" height="50.6631" fill="white" transform="translate(10.9805 0.0996094) rotate(11.7244)"/>
</clipPath>
</defs>
</svg>
