<svg width="64" height="65" viewBox="0 0 64 65" fill="none" xmlns="http://www.w3.org/2000/svg">
<g clip-path="url(#clip0_185_193)">
<path d="M50.8753 45.5718C44.8019 44.709 45.0989 42.6545 45.0989 42.6545C54.2486 35.9374 60.7773 25.5833 59.6106 22.0583C56.4287 12.4426 44.983 12.3452 44.78 12.377L44.7193 12.3639C43.6868 11.7321 42.4859 11.1445 41.0891 10.6173C38.545 9.65677 36.3471 9.67439 34.4762 10.2624C34.4762 10.2624 19.0115 -3.7244 13.8015 13.4596C12.6951 17.1147 9.20152 42.4737 17.6818 37.4771C20.782 35.6483 23.6636 34.1985 23.6636 34.1985C24.4541 35.2619 25.5749 36.0605 26.9215 36.3998L27.0524 36.3508C26.9052 36.664 26.8071 36.9861 26.7268 37.3799C24.59 38.5392 24.9311 38.997 21.652 38.5309C18.3353 38.0601 19.7439 39.842 20.8224 40.5643C22.1296 41.4384 25.2666 43.1388 28.6404 40.8025L28.4228 41.1297C28.8495 41.823 28.3245 44.6104 27.3978 46.975C26.4712 49.3395 25.8364 50.9635 25.8476 52.4141C25.8588 53.8646 25.2954 56.9171 29.615 57.495C33.2232 57.9789 35.6277 56.7414 36.9842 53.725C37.9461 51.5779 38.2183 52.0459 38.9491 50.0816L39.5968 49.2596C41.029 46.3967 41.0741 45.3237 42.9787 46.5123L43.4653 46.7348C44.9613 47.3498 47.0615 47.7503 48.4225 47.6242C51.3446 47.3609 53.5378 45.9474 50.8753 45.5718Z" fill="url(#paint0_linear_185_193)"/>
<path d="M28.5968 39.4929C28.7469 39.111 29.1767 38.921 29.5585 39.071C29.9404 39.2211 30.1304 39.6509 29.9804 40.0327C28.8705 42.8718 27.8543 45.7532 27.1332 48.0913C26.4861 50.1988 26.0927 51.8179 26.1166 52.48C26.1435 53.1824 26.2002 54.2267 26.7135 55.1035C27.2116 55.9619 28.1802 56.7233 30.0671 56.9775C31.7173 57.1991 32.9155 57.1017 33.8588 56.6341C34.7916 56.1714 35.5363 55.31 36.2769 53.9985C36.82 53.0431 37.7016 51.3508 38.5572 49.6579C39.63 47.5418 40.6879 45.3943 41.0009 44.6918C41.1664 44.3155 41.6061 44.1464 41.981 44.3158C42.3573 44.4813 42.5264 44.9209 42.357 45.2959C42.051 45.9791 40.9833 48.1536 39.8755 50.3312C38.9875 52.0778 38.0896 53.8035 37.5667 54.7269C36.6776 56.2946 35.7456 57.3501 34.5111 57.9616C33.2818 58.5707 31.8167 58.7074 29.8587 58.4451C27.4274 58.1176 26.127 57.0542 25.4242 55.8436C24.7312 54.6539 24.6563 53.3809 24.6263 52.5293C24.5946 51.6944 25.0153 49.9022 25.7073 47.6451C26.4392 45.2892 27.4731 42.3705 28.5968 39.4929Z" fill="white"/>
<path d="M34.9809 9.57182C35.2887 9.84343 35.317 10.3111 35.0454 10.6188C34.7738 10.9266 34.3062 10.9549 33.9984 10.6833C33.959 10.6474 19.3646 -2.47393 14.4952 13.5905C13.8924 15.5746 12.5756 24.1037 12.9273 30.5082C13.0398 32.5266 13.317 34.3165 13.8383 35.584C14.2721 36.6459 14.871 37.2964 15.6726 37.2964C16.1176 37.2948 16.6533 37.1253 17.2883 36.7519C20.3991 34.9181 23.1163 33.5619 23.1255 33.5608C23.4915 33.3784 23.9357 33.5247 24.1181 33.8907C24.3005 34.2568 24.1542 34.701 23.7882 34.8834C23.7829 34.8859 21.1314 36.2047 18.0416 38.0285C17.162 38.5495 16.3718 38.7846 15.6623 38.7828C14.1563 38.7785 13.1282 37.7822 12.4596 36.1482C11.8731 34.7222 11.5633 32.7681 11.448 30.5875C11.0833 24.0128 12.449 15.2136 13.0742 13.1549C18.6221 -5.14095 34.9352 9.52927 34.9809 9.57182Z" fill="white"/>
<path d="M44.937 13.0215L44.3057 11.5141C44.4017 11.5137 44.4964 11.5171 44.5896 11.5244C44.8437 11.5328 45.117 11.5481 45.4111 11.5664C45.8425 11.5904 46.4678 11.6448 47.215 11.7604C50.9431 12.3352 57.8763 14.4084 60.3031 21.7446C60.9891 23.8162 59.4489 27.7819 56.4399 32.0528C53.7766 35.8335 49.9532 39.9212 45.5287 43.1703C45.1976 43.4131 44.7309 43.3416 44.4881 43.0105C44.2452 42.6794 44.3167 42.2127 44.6478 41.9698C48.9417 38.8177 52.6469 34.8531 55.227 31.1951C57.9773 27.2932 59.4334 23.829 58.8956 22.2069C56.7163 15.6261 50.3883 13.7483 46.9806 13.2274C46.2826 13.1207 45.713 13.0689 45.3205 13.0458L44.937 13.0215Z" fill="white"/>
<path d="M45.8286 42.593C45.8294 42.6151 45.8263 42.6358 45.8233 42.6564C45.8219 42.6603 45.614 43.993 50.9658 44.7539C51.7249 44.8606 52.2156 45.0715 52.4831 45.3461C52.8319 45.6977 52.8928 46.0987 52.7107 46.5213C52.6011 46.7783 52.3765 47.0157 52.0708 47.2242C51.3686 47.6999 49.9925 48.1473 48.4665 48.284C47.3226 48.3878 45.7193 48.1568 44.3212 47.7425C43.4978 47.4994 42.7369 47.1916 42.1674 46.8479C41.4508 46.4165 40.9789 45.8856 40.9227 45.2773C40.9069 45.1148 40.9223 44.9504 40.9727 44.7855C41.7904 42.0202 43.2809 42.019 44.2977 42.0874C44.251 41.9138 44.1793 41.7008 44.0977 41.4667C43.8397 40.7163 43.51 39.7528 43.4465 38.4359C43.4354 38.2359 43.3616 37.7737 43.2587 37.1617C42.8273 34.5627 41.9809 29.4403 43.4935 26.6934C44.5718 24.7318 46.6541 23.919 50.4704 25.7542L50.4733 25.6245C50.4766 25.0201 50.4276 24.2095 50.2738 23.2656C49.6744 19.4953 47.4788 13.7495 40.82 11.2389C30.6616 7.40754 26.3752 20.4134 26.3628 20.4482C26.232 20.837 25.8097 21.0427 25.4209 20.912C25.0321 20.7812 24.8263 20.3589 24.9571 19.9701C24.9723 19.9276 29.7313 5.47048 41.3406 9.8484C48.6707 12.6129 51.0835 18.9071 51.7398 23.029C51.9034 24.0549 51.9595 24.9551 51.9544 25.6373C51.95 26.4026 51.8477 26.9671 51.7247 27.1888C51.546 27.5168 51.2754 27.6637 50.9199 27.6103L50.6676 27.5241C47.2404 25.6368 45.5463 26.0356 44.794 27.4039C43.5276 29.7076 44.3221 34.4889 44.7223 36.9199C44.8306 37.5774 44.9127 38.0774 44.9255 38.3696C44.9794 39.4825 45.269 40.3271 45.4926 40.9911C45.7072 41.5953 45.8726 42.0816 45.8286 42.593ZM50.7574 46.2215C46.789 45.6606 45.2682 44.4833 44.6928 43.5972C44.5723 43.5932 44.4454 43.5826 44.3094 43.573C43.7654 43.5347 42.9197 43.4753 42.4054 45.1643C42.4411 45.2468 42.6337 45.39 42.9267 45.5692C43.3964 45.8509 44.0366 46.1067 44.7415 46.316C45.9746 46.6799 47.3683 46.8879 48.3367 46.7996C49.3325 46.708 50.2183 46.4856 50.8079 46.2265L50.7574 46.2215Z" fill="white"/>
<path d="M27.0616 37.9531C26.661 38.171 26.3189 38.3838 26.0268 38.5666C24.7793 39.3477 24.3911 39.5919 21.5348 39.186C21.0201 39.1146 20.6612 39.0948 20.4259 39.1193C20.6092 39.3855 20.9272 39.6651 21.2224 39.8625C21.8191 40.2639 22.837 40.8513 24.0734 41.0726C25.2776 41.2867 26.7104 41.1427 28.2009 40.1089C28.2484 40.0737 28.2935 40.0332 28.3346 39.9913C28.5222 39.7841 28.6084 39.4709 28.6119 39.1453C28.6146 38.7977 28.5147 38.4569 28.3465 38.2092C28.3063 38.1512 28.2633 38.101 28.2137 38.057L28.1845 38.0291C28.0625 37.92 27.9263 37.8015 27.7871 37.7646C27.6349 37.7274 27.4136 37.7613 27.0616 37.9531ZM25.2382 37.3034C25.5132 37.1319 25.8329 36.9329 26.2992 36.6775C26.3387 36.6525 26.382 36.6288 26.424 36.609C27.1368 36.2373 27.7018 36.2047 28.1673 36.3281C28.6289 36.4501 28.9307 36.7021 29.1797 36.9309C29.1899 36.9389 29.2001 36.9469 29.2128 36.9602C29.3412 37.076 29.4574 37.2135 29.5642 37.3651C29.9059 37.858 30.0973 38.5148 30.0983 39.1557C30.0949 39.8211 29.8928 40.4936 29.4353 40.9918C29.3209 41.1163 29.1939 41.2276 29.0489 41.3281C27.1695 42.632 25.3469 42.806 23.8146 42.5351C22.3106 42.2701 21.1058 41.5722 20.3952 41.0994C19.879 40.7531 19.29 40.1845 19.0154 39.6503C18.8539 39.3353 18.7849 39.0056 18.8466 38.6879C18.9213 38.3095 19.154 38.0008 19.5929 37.8097C20.0161 37.626 20.6998 37.5663 21.7407 37.7131C24.0578 38.0432 24.338 37.8693 25.2382 37.3034Z" fill="white"/>
<path d="M27.3529 37.3735C27.2737 37.7765 26.8825 38.0413 26.4809 37.9583C26.0794 37.8752 25.8131 37.4878 25.8962 37.0862C25.914 36.9881 25.9395 36.8926 25.9664 36.7934C25.7375 36.7026 25.5153 36.6054 25.3039 36.4904C23.8809 35.7446 22.7974 34.502 22.1798 33.017C21.5684 31.5515 21.4124 29.8487 21.8385 28.1629C21.9883 27.5631 22.2159 26.965 22.5182 26.3894C23.7397 24.0653 24.3935 21.8295 24.735 20.671C24.8265 20.3553 24.898 20.1195 24.9617 19.942C25.1303 19.484 26.6473 18.8866 28.3926 18.8069C29.1808 18.7715 30.0335 18.8116 30.8355 18.9686C31.6813 19.137 32.4878 19.4393 33.1357 19.9288C34.1495 20.6977 34.7534 21.8685 34.5207 23.6105C33.6968 29.8548 31.6803 31.9416 30.1047 33.5767C29.8337 33.8586 29.5773 34.1239 29.3668 34.3707C29.356 34.3887 29.3428 34.4013 29.3281 34.4179C28.6069 35.2745 29.6627 34.0194 29.1203 34.657C28.2576 35.6895 27.5099 36.5715 27.3529 37.3735ZM26.6168 35.4538C26.9903 34.8863 27.4728 34.3187 27.9887 33.7065C28.3965 33.2254 27.3302 34.4854 28.1887 33.4645C28.2034 33.448 28.218 33.4315 28.2327 33.4149C28.4965 33.1044 28.7582 32.8366 29.0306 32.5509C30.4586 31.0721 32.2786 29.1805 33.0409 23.4239C33.1895 22.3052 32.8363 21.5772 32.233 21.1212C31.7803 20.7802 31.1833 20.5617 30.5363 20.4341C29.8441 20.2991 29.1158 20.2644 28.4432 20.2933C27.2616 20.3443 26.3544 20.4198 26.3434 20.4507C26.3074 20.551 26.2373 20.7829 26.1472 21.0948C25.7943 22.2971 25.111 24.627 23.8243 27.0845C23.5734 27.5653 23.386 28.0514 23.2633 28.5389C22.9199 29.8971 23.0457 31.2711 23.5404 32.455C24.0276 33.6232 24.8745 34.6023 25.9821 35.1826C26.19 35.2833 26.4006 35.3763 26.6168 35.4538Z" fill="white"/>
<path d="M30.2523 21.7351C30.1397 21.9518 30.3712 22.7276 30.9289 23.0191C31.4866 23.3107 32.164 23.0134 32.2765 22.7967C32.3891 22.5801 32.0289 22.1633 31.4712 21.8717C30.9135 21.5802 30.3649 21.5185 30.2523 21.7351Z" fill="white"/>
<path d="M30.4727 21.8492C30.4469 21.8966 30.4809 22.057 30.5648 22.2483C30.6586 22.4605 30.8197 22.6795 31.0427 22.7987L31.0465 22.8001C31.2671 22.9141 31.5109 22.9144 31.7132 22.8606C31.8998 22.8143 32.0312 22.7394 32.0649 22.6818C32.0691 22.6702 32.0236 22.6147 31.9465 22.5261C31.8201 22.3805 31.6148 22.2241 31.3623 22.0899L31.3546 22.0872C31.1045 21.9583 30.8586 21.8787 30.6696 21.8589C30.5518 21.8471 30.4754 21.8415 30.4727 21.8492ZM30.114 22.4482C29.9721 22.1272 29.9472 21.7958 30.0341 21.6265L30.0368 21.6188C30.1466 21.4099 30.3975 21.3299 30.7249 21.3646C30.9721 21.3923 31.2773 21.4887 31.5825 21.6461C31.5863 21.6475 31.5902 21.6489 31.5941 21.6502C31.9017 21.8129 32.158 22.0094 32.321 22.1986C32.5373 22.4461 32.6144 22.7046 32.506 22.9097C32.4219 23.0713 32.1596 23.256 31.8386 23.337C31.5359 23.4157 31.161 23.4163 30.82 23.2373L30.8161 23.2359C30.4776 23.0622 30.246 22.7482 30.114 22.4482Z" fill="white"/>
<path d="M48.348 27.6987C48.2972 27.9376 47.6254 28.3893 47.0095 28.2599C46.3898 28.1291 46.0597 27.4704 46.1105 27.2316C46.1614 26.9928 46.7044 26.9 47.3241 27.0308C47.9361 27.1588 48.395 27.4585 48.348 27.6987Z" fill="white"/>
<path d="M48.4644 27.7235C48.4311 27.8771 48.2253 28.0865 47.9432 28.2293C47.6715 28.3671 47.318 28.4538 46.9785 28.38L46.9747 28.3786C46.6352 28.3047 46.3729 28.0886 46.203 27.8578C46.0267 27.6203 45.9524 27.3539 45.9804 27.2028C46.0168 27.0285 46.2024 26.9121 46.4758 26.8664C46.7076 26.8275 47.0135 26.8371 47.3376 26.9054C47.6616 26.9737 47.947 27.0891 48.1451 27.2169C48.3792 27.3662 48.5022 27.5454 48.4644 27.7235ZM47.8315 28.0062C48.0493 27.897 48.2029 27.7604 48.2218 27.6713C48.2362 27.6068 48.1552 27.5167 48.0146 27.4228C47.8421 27.3086 47.5863 27.2081 47.2906 27.1456C46.9988 27.0845 46.7227 27.0769 46.5196 27.1087C46.3529 27.136 46.2428 27.188 46.2284 27.2525C46.2095 27.3416 46.2741 27.526 46.4087 27.7094C46.5458 27.898 46.761 28.0754 47.036 28.1348L47.0398 28.1362C47.3109 28.1942 47.6032 28.1204 47.8315 28.0062Z" fill="white"/>
<path d="M50.3085 26.651C50.4277 26.2581 50.8426 26.0366 51.2355 26.1557C51.6285 26.2749 51.85 26.6898 51.7308 27.0828C51.401 28.1844 50.9623 28.9943 50.5007 29.8439C50.1556 30.4782 49.7955 31.142 49.4912 31.9173C49.2008 32.654 49.001 33.5147 48.8005 34.4013C48.269 36.7333 47.6961 39.2291 45.1486 41.1081C44.8175 41.351 44.3547 41.2808 44.1105 40.9536C43.8676 40.6225 43.9378 40.1597 44.265 39.9154C46.3641 38.3635 46.8723 36.1452 47.3475 34.0674C47.5579 33.1408 47.7638 32.2387 48.1076 31.3774C48.4587 30.4838 48.8296 29.8021 49.1883 29.1422C49.6214 28.3477 50.0263 27.5955 50.3085 26.651Z" fill="white"/>
</g>
<defs>
<linearGradient id="paint0_linear_185_193" x1="40.1545" y1="9.67996" x2="23.6998" y2="55.5512" gradientUnits="userSpaceOnUse">
<stop stop-color="#279AF8"/>
<stop offset="1" stop-color="#124D7C"/>
</linearGradient>
<clipPath id="clip0_185_193">
<rect width="48.61" height="50.3939" fill="white" transform="translate(17.5137 0.687012) rotate(19.7337)"/>
</clipPath>
</defs>
</svg>
