<svg width="59" height="57" viewBox="0 0 59 57" fill="none" xmlns="http://www.w3.org/2000/svg">
<g clip-path="url(#clip0_185_140)">
<path fill-rule="evenodd" clip-rule="evenodd" d="M40.3736 35.2445C42.1242 34.6821 43.1568 32.8552 42.7051 31.0196C42.2536 29.1842 40.3987 28.0308 38.5474 28.4213L38.4241 28.4474C36.5238 28.9126 35.3809 30.8271 35.8457 32.7242C36.1023 33.6355 36.6416 34.3585 37.3139 34.7958C36.0868 39.367 33.5149 43.0632 29.2345 46.6051C26.3279 49.0205 23.064 50.3527 19.5789 50.6374C16.7239 50.8535 14.3041 50.0769 12.5172 48.3297C9.90559 45.7271 9.03154 42.5002 10.0088 38.883C10.6873 36.294 12.1744 34.1783 13.165 33.0682C12.7492 32.3191 12.0929 31.0418 11.6999 30.095C4.11681 38.4528 6.88858 47.0072 10.4746 50.5628C13.1611 53.2143 17.6986 54.2522 22.2651 53.2888C23.4992 53.0285 24.7073 52.6448 25.8765 52.0764C33.4505 48.8694 38.4484 42.9235 40.3733 35.2446L40.3736 35.2445ZM49.6226 25.3125C43.7757 20.8178 36.2272 19.2567 28.3283 20.9232L27.341 21.1314C26.5516 20.1396 25.223 19.6473 23.9272 19.9206L23.8037 19.9467C21.9039 20.4118 20.7609 22.3263 21.2255 24.2237C21.6771 26.0591 23.5318 27.2125 25.3832 26.8219L25.5066 26.7959C26.8512 26.4478 27.8417 25.3378 28.0884 24.0629L29.1991 23.8286C33.8891 22.8391 38.6181 23.2573 43.1885 25.0607C46.7028 26.4433 49.4834 28.6242 51.3935 31.568C52.9885 33.9347 53.4598 36.474 52.804 38.8651C51.7652 42.4954 49.2418 44.8943 45.4158 45.7014C42.9475 46.2222 40.4465 45.9774 39.0952 45.6832C38.5465 46.4425 37.5201 47.6887 36.7863 48.4874C39.7 49.1598 42.5582 49.2649 45.1499 48.7181C51.0742 47.4683 54.7666 43.2781 55.7438 39.6608C56.7793 35.7093 55.3559 29.5736 49.6228 25.3125L49.6226 25.3125ZM20.107 40.6141C20.5587 42.4497 22.4134 43.603 24.2647 43.2124L24.3882 43.1863C26.2883 42.7213 27.4312 40.8066 26.9664 38.9095C26.5149 37.0739 24.66 35.9207 22.8087 36.3112L22.6854 36.3373C22.5618 36.3633 22.3767 36.4024 22.2664 36.4898C18.8522 32.8336 16.8413 28.4954 16.1717 23.4877C15.6383 19.7385 16.1967 16.2739 17.7975 13.1686C19.106 10.5112 22.3278 8.67295 24.6598 8.11679C31.1748 6.61349 35.6677 14.1612 36.5419 17.3881C37.3832 17.4036 38.8317 17.5487 39.8225 17.6615C36.976 7.83559 29.713 3.96143 23.7891 5.2112C18.2351 6.38292 13.9582 11.4687 13.1696 17.8138C11.9949 26.2999 15.4452 33.4882 20.162 38.7363C19.9445 39.2327 19.9023 39.9495 20.107 40.6144L20.107 40.6143L20.107 40.6141Z" fill="white"/>
</g>
<defs>
<clipPath id="clip0_185_140">
<rect width="49.5606" height="46.9793" fill="white" transform="translate(0 10.23) rotate(-11.913)"/>
</clipPath>
</defs>
</svg>
