<svg width="59" height="59" viewBox="0 0 59 59" fill="none" xmlns="http://www.w3.org/2000/svg">
<g clip-path="url(#clip0_185_189)">
<path fill-rule="evenodd" clip-rule="evenodd" d="M47.4422 24.9409L39.9008 22.7279C39.4686 22.6191 39.0631 22.4232 38.7094 22.1522C38.3557 21.8813 38.0612 21.541 37.844 21.1523C37.6268 20.7637 37.4916 20.3349 37.4466 19.8922C37.4016 19.4496 37.4478 19.0026 37.5823 18.5787L39.8198 10.9542L20.6647 5.333C20.6363 5.32519 20.6066 5.3231 20.5774 5.32684C20.5482 5.33059 20.52 5.3401 20.4945 5.35481C20.4655 5.36528 20.4399 5.3833 20.4203 5.40699C20.4007 5.43069 20.3878 5.4592 20.383 5.48956L9.00932 44.2475C8.99783 44.305 9.00558 44.3647 9.03137 44.4175C9.04343 44.4446 9.06155 44.4687 9.08432 44.4878C9.1071 44.5069 9.13394 44.5206 9.1628 44.5278L38.9016 53.2548C38.9678 53.2742 38.9738 53.2401 39.0166 53.2168C39.0595 53.1935 39.1719 53.1507 39.1859 53.103L47.4495 24.9431L47.4422 24.9409ZM41.6712 54.7773C41.5058 55.3375 41.1246 55.8091 40.6111 56.0889C40.0976 56.3687 39.4938 56.4338 38.9318 56.2699L7.48973 47.0431C6.92833 46.8773 6.4554 46.4962 6.17454 45.9833C5.89367 45.4705 5.82778 44.8676 5.99128 44.3068L17.8756 3.80881C17.9562 3.53079 18.0914 3.27162 18.2734 3.04643C18.4555 2.82124 18.6806 2.63452 18.9358 2.49717C19.4492 2.21739 20.0531 2.1523 20.6151 2.31615L42.0399 8.60338C42.3649 8.70208 42.6506 8.9003 42.8566 9.16997L50.5561 23.4385C50.6542 23.5939 50.7069 23.7735 50.7081 23.957C50.7093 24.1406 50.659 24.3208 50.5629 24.4772L41.6723 54.7736L41.6712 54.7773ZM40.1974 19.1029L41.9848 12.4268L47.4411 22.5483L40.8551 20.2927C40.7305 20.2629 40.6135 20.2075 40.5116 20.13C40.4096 20.0525 40.325 19.9546 40.263 19.8426C40.2011 19.7306 40.1633 19.607 40.152 19.4796C40.1407 19.3522 40.1562 19.2239 40.1974 19.1029Z" fill="white"/>
<path fill-rule="evenodd" clip-rule="evenodd" d="M11.2321 18.0154L51.4994 29.832C52.1536 30.0261 52.7044 30.4708 53.0313 31.0689C53.3582 31.6669 53.4347 32.3697 53.2439 33.0233L48.3855 49.5793C48.192 50.2314 47.7478 50.7803 47.1499 51.1061C46.5519 51.4319 45.8489 51.5081 45.1942 51.3181L4.9269 39.5015C4.27276 39.3074 3.72197 38.8627 3.39503 38.2646C3.0681 37.6666 2.99164 36.9639 3.18239 36.3102L8.03975 19.7579C8.23323 19.1058 8.67745 18.5569 9.27538 18.2311C9.87332 17.9053 10.5764 17.8291 11.231 18.0191L11.2321 18.0154Z" fill="#FF0000"/>
<path d="M10.305 30.9401L13.7703 31.7258C13.6744 32.187 13.7021 32.6655 13.8507 33.1129C13.9717 33.4017 14.1595 33.6579 14.3987 33.8604C14.6379 34.063 14.9217 34.2062 15.2268 34.2783C15.6447 34.4281 16.1028 34.4208 16.5154 34.2577C16.67 34.2002 16.8093 34.108 16.9226 33.9883C17.0359 33.8687 17.1202 33.7246 17.1691 33.5673C17.218 33.41 17.2301 33.2435 17.2045 33.0807C17.1789 32.9179 17.1164 32.763 17.0216 32.628C16.8304 32.3128 16.2844 31.9133 15.3794 31.4165C13.9117 30.6084 12.9294 29.8124 12.4322 29.0286C12.1901 28.6635 12.0325 28.2493 11.971 27.816C11.9095 27.3827 11.9455 26.9413 12.0764 26.5239C12.2547 25.9253 12.6069 25.3932 13.0885 24.9948C13.6369 24.545 14.3064 24.267 15.013 24.196C16.023 24.1254 17.0373 24.2563 17.9965 24.5811C19.468 25.0129 20.5166 25.6197 21.1423 26.4013C21.7606 27.1809 21.9629 28.1932 21.7615 29.4378L18.3336 28.6472C18.4166 28.1967 18.3348 27.7313 18.1032 27.3356C17.8394 26.9767 17.4564 26.723 17.0227 26.6198C16.6946 26.497 16.334 26.4928 16.0034 26.6078C15.8821 26.6537 15.7732 26.7273 15.6855 26.8227C15.5979 26.9181 15.5338 27.0327 15.4985 27.1573C15.4729 27.2544 15.4693 27.3559 15.4881 27.4546C15.5068 27.5532 15.5474 27.6464 15.6069 27.7274C15.9026 28.0632 16.2696 28.329 16.6812 28.5052C17.7761 29.0528 18.8025 29.7274 19.7393 30.515C20.2587 30.9718 20.6385 31.5655 20.8348 32.228C20.9942 32.8366 20.9805 33.4774 20.7953 34.0783C20.584 34.8087 20.1607 35.46 19.5787 35.9501C18.9725 36.4589 18.2298 36.7788 17.4428 36.8703C16.4536 36.9604 15.4561 36.8468 14.5121 36.5366C12.5501 35.9608 11.2951 35.1818 10.7469 34.1996C10.2076 33.2011 10.0508 32.041 10.3061 30.9364L10.305 30.9401ZM32.297 39.7063C32.6505 40.1489 32.8841 40.4288 32.9965 40.5495C33.1654 40.7226 33.4051 40.9405 33.7057 41.1962L32.129 42.9064C31.6916 42.5054 31.2844 42.0727 30.9107 41.612C30.6215 41.2806 30.3496 40.9347 30.0961 40.5755C29.0417 40.6683 27.9792 40.5464 26.9729 40.2172C25.212 39.7004 23.9557 38.8347 23.2041 37.62C22.3181 36.1825 22.1627 34.4836 22.7379 32.5233C23.297 30.6181 24.2562 29.2967 25.6185 28.5482C26.9809 27.7997 28.6064 27.7066 30.4973 28.2615C32.3882 28.8164 33.7566 29.7762 34.5024 31.1154C35.2481 32.4546 35.3244 34.0598 34.7632 35.9724C34.2604 37.6855 33.4387 38.9289 32.2981 39.7026L32.297 39.7063ZM30.0876 37.0644C30.6221 36.45 30.9983 35.7147 31.1838 34.922C31.5256 33.7571 31.5519 32.8597 31.2626 32.2299C31.1083 31.9152 30.8859 31.6385 30.6114 31.42C30.3369 31.2015 30.0172 31.0467 29.6754 30.9668C29.3497 30.8613 29.0046 30.8297 28.6653 30.8743C28.3259 30.9188 28.0009 31.0385 27.7139 31.2245C27.1199 31.6057 26.6642 32.3372 26.3468 33.4189C25.9762 34.6817 25.9321 35.6309 26.2143 36.2666C26.3651 36.5794 26.5848 36.8541 26.8571 37.07C27.1294 37.2859 27.447 37.4375 27.7863 37.5134C28.0174 37.5818 28.2553 37.6249 28.4957 37.6418C28.1789 37.1591 27.7751 36.7392 27.3049 36.4033L28.2526 35.2979C28.495 35.4105 28.7214 35.5547 28.9259 35.7267C29.2293 36.0283 29.5112 36.3509 29.7694 36.6919C29.866 36.8119 29.9737 36.9352 30.0902 37.0691L30.0876 37.0644ZM38.3732 30.7641L41.9526 31.8145L39.3909 40.544L45.0083 42.1925L44.1735 45.0375L34.9766 42.3386L38.3732 30.7641Z" fill="white"/>
</g>
<defs>
<clipPath id="clip0_185_189">
<rect width="47.1104" height="46.6092" fill="white" transform="translate(13.75 0.301758) rotate(16.3546)"/>
</clipPath>
</defs>
</svg>
