<svg width="57" height="57" viewBox="0 0 57 57" fill="none" xmlns="http://www.w3.org/2000/svg">
<path d="M36.7625 1.54331L3.97862 14.2586C1.78129 15.1109 0.690879 17.583 1.54312 19.7804L14.2584 52.5642C15.1107 54.7616 17.5829 55.852 19.7802 54.9998L52.5641 42.2844C54.7614 41.4322 55.8518 38.96 54.9996 36.7627L42.2842 3.97881C41.432 1.78148 38.9598 0.691068 36.7625 1.54331Z" fill="url(#paint0_linear_185_145)"/>
<path fill-rule="evenodd" clip-rule="evenodd" d="M37.7933 38.4399L39.3383 42.4234C40.1146 42.5042 40.977 42.456 41.9256 42.2791C42.8742 42.1021 43.8383 41.8237 44.818 41.4437C45.7728 41.0734 46.6443 40.6304 47.4328 40.1145C48.2213 39.5986 48.8581 39.0055 49.3431 38.3353C49.8281 37.6651 50.1284 36.9185 50.2438 36.0956C50.3592 35.2727 50.2238 34.3634 49.8375 33.3675C49.5575 32.6455 49.2042 32.0546 48.7775 31.5947C48.3508 31.1349 47.852 30.7723 47.281 30.5068C46.7101 30.2413 46.075 30.0508 45.3759 29.9353C44.6769 29.8197 43.9124 29.751 43.0825 29.7293C42.4758 29.7163 41.9255 29.6887 41.4315 29.6464C40.9375 29.6041 40.5042 29.5335 40.1315 29.4346C39.7588 29.3356 39.4478 29.1985 39.1983 29.0232C38.9489 28.8478 38.7661 28.6108 38.6503 28.312C38.5441 28.0382 38.5189 27.7639 38.5747 27.4892C38.6306 27.2145 38.7566 26.9485 38.9528 26.691C39.1491 26.4335 39.417 26.1887 39.7568 25.9567C40.0967 25.7246 40.4949 25.5201 40.9515 25.343C41.2836 25.2142 41.644 25.1031 42.0327 25.0095C42.4215 24.916 42.8228 24.8487 43.2367 24.8075C43.6505 24.7663 44.0644 24.7562 44.4785 24.777C44.8925 24.7978 45.2891 24.854 45.6685 24.9456L44.2248 21.2235C43.5287 21.2262 42.7998 21.3108 42.0382 21.4773C41.2766 21.6438 40.4308 21.9074 39.501 22.268C38.5545 22.6351 37.6973 23.0846 36.9294 23.6163C36.1614 24.1481 35.5394 24.7545 35.0633 25.4356C34.5872 26.1168 34.292 26.8637 34.1775 27.6767C34.063 28.4896 34.186 29.3608 34.5465 30.2903C35.0068 31.4771 35.7419 32.3567 36.752 32.9293C37.762 33.5018 39.077 33.808 40.6972 33.848C41.332 33.8595 41.9279 33.8814 42.4848 33.9136C43.0417 33.9459 43.5376 34.0114 43.9722 34.1101C44.4068 34.2088 44.7769 34.3565 45.0825 34.5531C45.3879 34.7496 45.6082 35.0222 45.7434 35.3708C45.8432 35.628 45.8734 35.8908 45.8342 36.159C45.795 36.4272 45.6801 36.6913 45.4897 36.9514C45.2992 37.2114 45.0328 37.4603 44.6905 37.6981C44.3481 37.936 43.9238 38.153 43.4173 38.3494C42.5538 38.6843 41.64 38.8646 40.6756 38.8901C39.7114 38.9157 38.7505 38.7656 37.7933 38.4399ZM27.2899 31.2226L32.4001 29.2406L31.1322 25.9716L16.8887 31.496L18.1566 34.765L23.2417 32.7927L28.887 47.348L32.9352 45.7779L27.2899 31.2226Z" fill="white"/>
<defs>
<linearGradient id="paint0_linear_185_145" x1="20.3706" y1="7.90097" x2="36.1721" y2="48.6421" gradientUnits="userSpaceOnUse">
<stop stop-color="#2182ED"/>
<stop offset="1" stop-color="#0D4B8E"/>
</linearGradient>
</defs>
</svg>
